<svg width="17" height="23" viewBox="0 0 17 23" fill="none" xmlns="http://www.w3.org/2000/svg">
<g clip-path="url(#clip0_639_449)">
<path d="M8.72465 22.4798L8.43879 22.1572C8.11471 21.7919 0.501953 13.158 0.501953 8.73323C0.501953 4.19844 4.19063 0.509766 8.72465 0.509766C13.2587 0.509766 16.9474 4.19844 16.9474 8.73323C16.9474 13.158 9.33459 21.7919 9.01051 22.1572L8.72465 22.4798ZM8.72465 1.2741C4.61177 1.2741 1.26629 4.62035 1.26629 8.73323C1.26629 12.4112 7.32439 19.6884 8.72465 21.3203C10.1249 19.6877 16.183 12.4097 16.183 8.73323C16.1838 4.62035 12.8375 1.2741 8.72465 1.2741Z" fill="#EA3E2A"/>
<path d="M8.72486 12.3001C6.75823 12.3001 5.15771 10.6996 5.15771 8.73295C5.15771 6.76555 6.75823 5.16504 8.72486 5.16504C10.6923 5.16504 12.292 6.76555 12.292 8.73295C12.2928 10.6996 10.6923 12.3001 8.72486 12.3001ZM8.72486 5.92937C7.17938 5.92937 5.92205 7.18746 5.92205 8.73295C5.92205 10.2784 7.17938 11.5358 8.72486 11.5358C10.2703 11.5358 11.5277 10.2784 11.5277 8.73295C11.5284 7.1867 10.2711 5.92937 8.72486 5.92937Z" fill="#EA3E2A"/>
</g>
<defs>
<clipPath id="clip0_639_449">
<rect width="16.4462" height="21.97" fill="white" transform="translate(0.501953 0.509766)"/>
</clipPath>
</defs>
</svg>
