<svg width="23" height="21" viewBox="0 0 23 21" fill="none" xmlns="http://www.w3.org/2000/svg">
<g clip-path="url(#clip0_639_424)">
<path d="M3.3772 7.50161C3.33806 7.50164 3.29942 7.49281 3.26417 7.47578C3.22893 7.45875 3.198 7.43396 3.1737 7.40328C3.1494 7.37259 3.13236 7.3368 3.12386 7.29859C3.11536 7.26038 3.11562 7.22074 3.12463 7.18265C4.05401 3.25429 7.52598 0.510742 11.5682 0.510742C15.5362 0.510742 18.9929 3.19232 19.9744 7.03199C19.9914 7.09863 19.9813 7.16932 19.9463 7.2285C19.9112 7.28769 19.8541 7.33052 19.7874 7.34757C19.7544 7.35602 19.7201 7.35788 19.6864 7.35306C19.6526 7.34823 19.6202 7.33681 19.5909 7.31945C19.5317 7.28439 19.4889 7.22725 19.4718 7.16061C18.5492 3.55043 15.2992 1.02937 11.5682 1.02937C7.76766 1.02937 4.50289 3.60878 3.62925 7.30219C3.61578 7.35893 3.58358 7.40948 3.53785 7.44566C3.49211 7.48184 3.43552 7.50155 3.3772 7.50161Z" fill="#EA3E2A"/>
<path d="M20.1202 13.4648H19.9405C19.2259 13.4648 18.644 12.8834 18.644 12.1682V8.20771C18.644 7.49252 19.2259 6.91113 19.9405 6.91113H20.3355C21.5454 6.91113 22.53 7.89523 22.53 9.1052V11.0555C22.53 12.384 21.4492 13.4648 20.1202 13.4648ZM19.9405 7.42976C19.5116 7.42976 19.1626 7.7788 19.1626 8.20771V12.1682C19.1626 12.5971 19.5116 12.9462 19.9405 12.9462H20.1202C21.1629 12.9462 22.0114 12.0979 22.0114 11.0555V9.1052C22.0109 8.66092 21.8341 8.23501 21.5199 7.92091C21.2057 7.60681 20.7797 7.43017 20.3355 7.42976H19.9405ZM3.11878 13.6811H2.72359C1.51388 13.6811 0.529785 12.6964 0.529785 11.487V9.53618C0.529785 8.20771 1.61061 7.12688 2.93908 7.12688H3.11878C3.83371 7.12688 4.41536 7.70827 4.41536 8.42346V12.3845C4.41536 13.0992 3.83371 13.6811 3.11878 13.6811ZM2.93908 7.64551C1.89663 7.64551 1.04841 8.49373 1.04841 9.53618V11.487C1.04889 11.9312 1.22553 12.357 1.53958 12.6711C1.85362 12.9852 2.27943 13.1619 2.72359 13.1624H3.11878C3.54769 13.1624 3.89673 12.8134 3.89673 12.3845V8.42346C3.89673 7.99455 3.54769 7.64551 3.11878 7.64551H2.93908Z" fill="#EA3E2A"/>
<path d="M14.1065 19.5428H12.3037C12.235 19.5428 12.169 19.5155 12.1204 19.4669C12.0718 19.4182 12.0444 19.3523 12.0444 19.2835C12.0444 19.2147 12.0718 19.1488 12.1204 19.1001C12.169 19.0515 12.235 19.0242 12.3037 19.0242H14.1065C17.2051 19.0242 19.7259 16.5034 19.7259 13.4048C19.7259 13.336 19.7532 13.2701 19.8018 13.2215C19.8504 13.1728 19.9164 13.1455 19.9852 13.1455C20.0539 13.1455 20.1199 13.1728 20.1685 13.2215C20.2172 13.2701 20.2445 13.336 20.2445 13.4048C20.2445 16.7889 17.4913 19.5428 14.1065 19.5428Z" fill="#EA3E2A"/>
<path d="M11.3566 20.4489C11.1228 20.4487 10.8942 20.3804 10.6987 20.2524C10.4314 20.0772 10.2445 19.8032 10.179 19.4904C10.1134 19.1776 10.1746 18.8516 10.3491 18.5839C10.4357 18.4514 10.5475 18.3373 10.6782 18.248C10.8088 18.1587 10.9558 18.0961 11.1107 18.0637C11.2656 18.0312 11.4254 18.0296 11.5809 18.059C11.7364 18.0883 11.8846 18.148 12.0171 18.2346C12.2842 18.4099 12.471 18.6839 12.5366 18.9966C12.6021 19.3094 12.541 19.6353 12.3666 19.9031C12.2571 20.0711 12.1074 20.209 11.9309 20.3043C11.7545 20.3997 11.5571 20.4494 11.3566 20.4489ZM11.3587 18.5567C11.2107 18.5567 11.0668 18.6045 10.9482 18.6929C10.8296 18.7813 10.7428 18.9056 10.7005 19.0473C10.6582 19.189 10.6628 19.3406 10.7136 19.4795C10.7644 19.6184 10.8587 19.7372 10.9824 19.8183C11.2907 20.0198 11.7326 19.9246 11.9325 19.6186C11.9999 19.515 12.0381 19.3952 12.0431 19.2718C12.0481 19.1484 12.0198 19.0259 11.961 18.9172C11.9023 18.8085 11.8154 18.7177 11.7093 18.6542C11.6033 18.5908 11.4822 18.5571 11.3587 18.5567Z" fill="#EA3E2A"/>
</g>
<defs>
<clipPath id="clip0_639_424">
<rect width="22" height="19.9379" fill="white" transform="translate(0.529785 0.510742)"/>
</clipPath>
</defs>
</svg>
