<svg width="122" height="16" viewBox="0 0 122 16" fill="none" xmlns="http://www.w3.org/2000/svg">
<g id="Group 17">
<g id="&#195;&#144;&#194;&#161;&#195;&#144;&#194;&#187;&#195;&#144;&#194;&#190;&#195;&#144;&#194;&#185; 4">
<g id="&#195;&#144;&#194;&#161;&#195;&#144;&#194;&#187;&#195;&#144;&#194;&#190;&#195;&#144;&#194;&#185; 1">
<g id="2115554255296">
<path id="Vector" d="M78.9665 9.35538C81.7288 9.33565 83.9577 7.23969 83.9577 4.66236C83.9577 3.43401 83.4406 2.25354 82.5193 1.37684C81.5776 0.499259 80.2987 0.00481556 78.9665 0.00415039L72.6338 0.00437233C71.0858 0.00437233 69.5996 0.581299 68.5087 1.60567C67.4227 2.61119 66.8107 3.981 66.8107 5.40846C66.8107 5.41755 66.8107 5.42753 66.8107 5.43662V9.88331C66.8309 12.8493 69.4104 15.2477 72.5903 15.257H81.0039C82.0178 15.2568 82.8402 14.4896 82.8402 13.5438C82.8402 12.5979 82.0178 11.8307 81.0039 11.8307L72.5898 11.8312C72.5877 11.8309 72.5856 11.8309 72.5834 11.8309C71.4236 11.8309 70.483 10.9538 70.483 9.87178C70.483 9.86978 70.483 9.86779 70.483 9.86579V9.33188L78.9665 9.35538ZM70.483 5.44261C70.483 5.44084 70.483 5.4384 70.483 5.43662C70.483 4.32867 71.4461 3.43024 72.6338 3.43024H78.9665C79.7109 3.43977 80.3118 4.00273 80.3184 4.69761C80.3082 5.38695 79.7059 5.94127 78.9665 5.94127H78.9663L70.483 5.94105V5.44261Z" fill="#202020"/>
<path id="Vector_2" d="M101.141 0.00432246H87.6394C87.6039 0.00232694 87.5675 0.0012207 87.5319 0.0012207C86.5179 0.0012207 85.6956 0.768387 85.6956 1.71426C85.6956 2.66014 86.5179 3.42731 87.5319 3.42731C87.5675 3.42731 87.6039 3.4262 87.6394 3.42442H92.5443V13.5852C92.5424 13.618 92.5412 13.6519 92.5412 13.6852C92.5412 14.631 93.3636 15.3982 94.3775 15.3982C95.3915 15.3982 96.2138 14.631 96.2138 13.6852C96.2138 13.6519 96.2126 13.618 96.2107 13.5849L96.2105 3.43019H101.141C101.176 3.43218 101.213 3.43329 101.248 3.43329C102.262 3.43329 103.085 2.66613 103.085 1.72025C103.085 0.774374 102.262 0.0072077 101.248 0.0072077C101.213 0.0072077 101.176 0.00831372 101.141 0.0100875V0.00432246Z" fill="#202020"/>
<path id="Vector_3" d="M116.969 5.93568H109.794C109.06 5.93568 108.464 5.38248 108.46 4.69802V4.69779C108.46 4.00801 109.055 3.44616 109.794 3.43663H119.227C119.262 3.4384 119.298 3.43951 119.334 3.43951C120.348 3.43951 121.17 2.67234 121.17 1.72647C121.17 0.780589 120.348 0.0134277 119.334 0.0134277C119.298 0.0134277 119.262 0.0145338 119.227 0.0163076L109.794 0.0165295C108.476 0.0225161 107.213 0.512525 106.278 1.37769C105.337 2.25905 104.802 3.45259 104.794 4.69779C104.805 5.93413 105.339 7.11726 106.279 7.98863C107.197 8.86289 108.457 9.35601 109.77 9.35601C109.784 9.35601 109.799 9.35601 109.812 9.35601L116.969 9.35578C117.715 9.35578 118.321 9.92074 118.321 10.6172V10.6174C118.321 11.301 117.727 11.8551 116.994 11.8551C116.986 11.8551 116.977 11.8548 116.969 11.8548H107.536C106.612 11.9559 105.914 12.6874 105.914 13.5559C105.914 14.4244 106.612 15.1559 107.536 15.2572L116.969 15.2574C118.301 15.2568 119.58 14.7623 120.522 13.8845C121.459 13.022 121.992 11.8455 122 10.6172C122 8.02566 119.747 5.92393 116.969 5.92393V5.93568Z" fill="#202020"/>
<path id="Vector_4" d="M42.4551 4.20522C42.3715 4.19547 42.2864 4.19059 42.2018 4.19059C41.7205 4.19059 41.2536 4.34735 40.8831 4.63338L31.3242 11.7376C30.8735 12.0547 30.589 12.5379 30.5446 13.0633C30.5334 13.1445 30.5274 13.227 30.5274 13.309C30.5274 13.7536 30.6964 14.1844 31.0037 14.5241C31.2096 14.7598 31.4701 14.9507 31.7646 15.0813C32.0434 15.1974 32.3455 15.258 32.6509 15.258C32.6675 15.258 32.6853 15.2577 32.7017 15.2575C32.7122 15.2575 32.7229 15.2577 32.7336 15.2577C33.2099 15.2577 33.6722 15.1043 34.0413 14.8234L43.6 7.70737C44.1065 7.33753 44.4034 6.76969 44.4034 6.16904C44.4034 5.72603 44.2417 5.29611 43.9458 4.95V4.92073C43.5957 4.4999 43.0743 4.23206 42.5057 4.18173L42.4551 4.20522ZM28.9284 11.0337C28.9219 11.0339 28.915 11.0339 28.9084 11.0339C28.4178 11.0339 27.9415 10.8785 27.5579 10.5938L18.0301 3.52475C17.5794 3.20591 17.2916 2.72455 17.2379 2.19884C17.2288 2.12456 17.2239 2.04918 17.2239 1.97424C17.2239 1.5217 17.3962 1.08335 17.7097 0.738122C18.1166 0.271392 18.7281 0 19.3732 0C19.8022 0 20.2222 0.120398 20.5773 0.345005L25.7211 4.16421L26.6329 4.84468L27.5322 5.5134C27.9163 5.79809 28.3926 5.95352 28.8832 5.95352C28.8898 5.95352 28.8967 5.95352 28.9034 5.95352L28.9031 5.9533C28.9146 5.95352 28.9272 5.95375 28.9388 5.95375C29.4151 5.95375 29.8769 5.79787 30.2427 5.51362L37.1033 0.433029C37.4829 0.157425 37.9497 0.00754058 38.4303 0.00754058C39.0791 0.00754058 39.6942 0.280483 40.1035 0.749874C40.3956 1.09709 40.5551 1.52613 40.5551 1.96803C40.5551 2.57666 40.2535 3.15137 39.7384 3.52453L30.2175 10.5643C29.8529 10.8452 29.3942 10.9991 28.921 10.9991C28.9067 10.9991 28.8922 10.9989 28.8782 10.9986L28.9284 11.0337ZM12.6157 0.192455C12.3303 0.0691765 12.0189 0.00487729 11.704 0.00487729C11.6935 0.00465556 11.6829 0.00443341 11.6722 0.00443341C11.1959 0.00443341 10.7336 0.157869 10.3644 0.438794L0.805717 7.5608C0.297797 7.92953 0 8.49737 0 9.09824C0 9.54169 0.16232 9.97228 0.460131 10.318V10.3472C0.80833 10.7663 1.32814 11.0321 1.89382 11.0805C1.97891 11.0907 2.06542 11.0958 2.15122 11.0958C2.63157 11.0958 3.09696 10.9388 3.46607 10.6523L13.0559 3.52475C13.5032 3.20902 13.7866 2.73142 13.836 2.21059C13.8469 2.13033 13.8529 2.04896 13.8529 1.96803C13.8529 1.52436 13.6841 1.09443 13.377 0.755639C13.1724 0.518172 12.9117 0.327043 12.6157 0.198442V0.192455ZM15.5209 4.25201C15.5159 4.25201 15.51 4.25201 15.5047 4.25201C15.0101 4.25201 14.5298 4.40943 14.1438 4.6979L4.63545 11.7376C4.12872 12.1077 3.83185 12.6753 3.83185 13.2762C3.83185 13.7321 4.00299 14.1737 4.31482 14.5243C4.72196 14.9952 5.33658 15.2697 5.98521 15.2697C6.4116 15.2697 6.82899 15.1509 7.18265 14.9287L12.3265 11.151L13.2446 10.4705L14.144 9.80177C14.5286 9.51708 15.0056 9.36165 15.4969 9.36165C15.505 9.36165 15.5133 9.36187 15.5211 9.36187H15.4895C15.5 9.36187 15.5107 9.36165 15.5209 9.36165C15.9986 9.36165 16.4616 9.5173 16.8293 9.80177L23.6776 14.8821C24.0567 15.1575 24.5234 15.3074 25.004 15.3074C25.6529 15.3074 26.268 15.0345 26.6773 14.5651C26.9984 14.2105 27.1748 13.7611 27.1748 13.2968C27.1748 12.686 26.8698 12.109 26.3502 11.7376L16.8291 4.6979C16.4633 4.41741 16.0043 4.26354 15.5304 4.26354C15.5169 4.26354 15.5031 4.26376 15.4898 4.26398L15.5209 4.25201Z" fill="#EA3E2A"/>
<path id="Vector_5" fill-rule="evenodd" clip-rule="evenodd" d="M51.5297 0.303478C51.224 0.109026 50.8625 0.00459384 50.4922 0.00415039C49.4505 0.00415039 48.6055 0.792384 48.6055 1.7642V13.4972C48.6055 14.4688 49.4505 15.257 50.4922 15.257C51.534 15.257 52.3789 14.4688 52.3789 13.497L52.3787 6.01732L61.7675 14.7761C61.8597 14.865 61.9633 14.9439 62.0755 15.0105C62.3821 15.1974 62.7408 15.2969 63.107 15.2969C64.1483 15.2969 64.993 14.5096 64.9937 13.5382L64.9935 1.7642C64.9937 0.792384 64.1488 0.00415039 63.107 0.00415039C62.0653 0.00415039 61.2203 0.792384 61.2203 1.7642V9.29086L51.8315 0.5323C51.7405 0.446492 51.6385 0.369331 51.5299 0.303478H51.5297Z" fill="#202020"/>
</g>
</g>
</g>
</g>
</svg>
