<svg width="121" height="40" viewBox="0 0 121 40" fill="none" xmlns="http://www.w3.org/2000/svg">
<g id="IMAGE" clip-path="url(#clip0_1025_68)">
<path id="Vector" d="M112.497 0H8.49609C4.07782 0 0.496094 3.58172 0.496094 8V32C0.496094 36.4183 4.07782 40 8.49609 40H112.497C116.915 40 120.497 36.4183 120.497 32V8C120.497 3.58172 116.915 0 112.497 0Z" fill="#111111"/>
<path id="Vector_2" d="M27.2772 19.5857C27.2514 16.7208 29.623 15.327 29.7314 15.2621C28.3883 13.3038 26.3065 13.0363 25.575 13.0149C23.8265 12.8309 22.1305 14.0612 21.2398 14.0612C20.3314 14.0612 18.9598 13.0327 17.4815 13.0629C15.5793 13.0923 13.7997 14.1936 12.8237 15.9039C10.8095 19.391 12.3117 24.5155 14.2415 27.3342C15.2069 28.7146 16.3349 30.256 17.8113 30.2018C19.2558 30.1422 19.7954 29.2809 21.5385 29.2809C23.2656 29.2809 23.7723 30.2018 25.2781 30.1671C26.8283 30.1422 27.8043 28.7804 28.7359 27.3875C29.8514 25.8053 30.2995 24.2471 30.3172 24.1671C30.2808 24.1546 27.3065 23.0195 27.2772 19.5857Z" fill="white"/>
<path id="Vector_3" d="M24.4317 11.1616C25.2085 10.1902 25.74 8.86851 25.5925 7.52734C24.4682 7.57711 23.0621 8.30502 22.2524 9.25512C21.5361 10.0924 20.8961 11.4647 21.0615 12.7552C22.3244 12.8494 23.6211 12.1179 24.4317 11.1616Z" fill="white"/>
<path id="Vector_4" d="M48.1821 25.8548H46.1634L45.0576 22.3801H41.214L40.1607 25.8548H38.1953L42.0034 14.0254H44.3554L48.1821 25.8548ZM44.7243 20.9223L43.7243 17.8334C43.6185 17.5179 43.4203 16.7748 43.1278 15.605H43.0922C42.9758 16.1081 42.7882 16.8512 42.5305 17.8334L41.5482 20.9223H44.7243Z" fill="white"/>
<path id="Vector_5" d="M57.976 21.4856C57.976 22.9362 57.584 24.0829 56.8 24.9247C56.0978 25.674 55.2258 26.0483 54.1849 26.0483C53.0613 26.0483 52.2542 25.6447 51.7626 24.8376H51.7271V29.331H49.8319V20.1335C49.8319 19.2215 49.8079 18.2855 49.7617 17.3255H51.4284L51.5342 18.6775H51.5697C52.2017 17.6589 53.1609 17.1504 54.448 17.1504C55.4542 17.1504 56.2942 17.5477 56.9662 18.3433C57.64 19.1398 57.976 20.1869 57.976 21.4856ZM56.0453 21.5549C56.0453 20.7247 55.8587 20.0402 55.4836 19.5015C55.0738 18.9398 54.5235 18.6589 53.8338 18.6589C53.3662 18.6589 52.9413 18.8153 52.5617 19.1238C52.1813 19.4349 51.9324 19.8411 51.816 20.3442C51.7573 20.5789 51.728 20.7709 51.728 20.922V22.3442C51.728 22.9647 51.9182 23.4882 52.2986 23.9158C52.6791 24.3434 53.1733 24.5567 53.7813 24.5567C54.4951 24.5567 55.0507 24.2811 55.448 23.7318C55.8462 23.1816 56.0453 22.4562 56.0453 21.5549Z" fill="white"/>
<path id="Vector_6" d="M67.7857 21.4856C67.7857 22.9362 67.3937 24.0829 66.6088 24.9247C65.9074 25.674 65.0354 26.0483 63.9945 26.0483C62.871 26.0483 62.0638 25.6447 61.5732 24.8376H61.5376V29.331H59.6425V20.1335C59.6425 19.2215 59.6185 18.2855 59.5723 17.3255H61.2389L61.3447 18.6775H61.3803C62.0114 17.6589 62.9705 17.1504 64.2585 17.1504C65.2639 17.1504 66.1039 17.5477 66.7777 18.3433C67.4488 19.1398 67.7857 20.1869 67.7857 21.4856ZM65.855 21.5549C65.855 20.7247 65.6674 20.0402 65.2923 19.5015C64.8825 18.9398 64.3341 18.6589 63.6434 18.6589C63.175 18.6589 62.751 18.8153 62.3705 19.1238C61.9901 19.4349 61.7421 19.8411 61.6256 20.3442C61.5678 20.5789 61.5376 20.7709 61.5376 20.922V22.3442C61.5376 22.9647 61.7278 23.4882 62.1065 23.9158C62.487 24.3425 62.9812 24.5567 63.591 24.5567C64.3048 24.5567 64.8603 24.2811 65.2577 23.7318C65.6559 23.1816 65.855 22.4562 65.855 21.5549Z" fill="white"/>
<path id="Vector_7" d="M78.7548 22.537C78.7548 23.5432 78.4054 24.3619 77.7041 24.9939C76.9334 25.6846 75.8605 26.0294 74.4818 26.0294C73.2089 26.0294 72.1885 25.7841 71.416 25.2926L71.8551 23.713C72.6871 24.2161 73.6 24.4685 74.5947 24.4685C75.3085 24.4685 75.8641 24.3068 76.2632 23.985C76.6605 23.6632 76.8587 23.2312 76.8587 22.6925C76.8587 22.2125 76.6952 21.8081 76.3672 21.4801C76.041 21.1521 75.4961 20.8472 74.7352 20.5654C72.664 19.7929 71.6294 18.6614 71.6294 17.1734C71.6294 16.2009 71.992 15.4036 72.7183 14.7831C73.4418 14.1618 74.4072 13.8516 75.6143 13.8516C76.6907 13.8516 77.585 14.0391 78.2988 14.4133L77.825 15.9582C77.1583 15.5956 76.4045 15.4142 75.5609 15.4142C74.8943 15.4142 74.3734 15.5787 74 15.9058C73.6845 16.1982 73.5263 16.5547 73.5263 16.9769C73.5263 17.4445 73.7067 17.8311 74.0694 18.1351C74.3849 18.416 74.9583 18.72 75.7903 19.048C76.8081 19.4578 77.5556 19.9369 78.0365 20.4863C78.5156 21.0338 78.7548 21.7192 78.7548 22.537Z" fill="white"/>
<path id="Vector_8" d="M85.0209 18.7468H82.932V22.8882C82.932 23.9415 83.3 24.4677 84.0378 24.4677C84.3764 24.4677 84.6573 24.4384 84.8796 24.3797L84.932 25.8189C84.5587 25.9584 84.0671 26.0286 83.4582 26.0286C82.7098 26.0286 82.1249 25.8002 81.7026 25.3442C81.2822 24.8873 81.0706 24.1211 81.0706 23.0446V18.745H79.8262V17.3228H81.0706V15.761L82.932 15.1992V17.3228H85.0209V18.7468Z" fill="white"/>
<path id="Vector_9" d="M94.4465 21.5193C94.4465 22.8304 94.0714 23.9069 93.323 24.7487C92.5381 25.6154 91.4963 26.0474 90.1976 26.0474C88.946 26.0474 87.9496 25.6322 87.2065 24.802C86.4634 23.9718 86.0918 22.9238 86.0918 21.6606C86.0918 20.3389 86.474 19.2562 87.2411 18.4144C88.0065 17.5717 89.0394 17.1504 90.3381 17.1504C91.5896 17.1504 92.5967 17.5655 93.3568 18.3966C94.0839 19.2028 94.4465 20.2437 94.4465 21.5193ZM92.4803 21.5806C92.4803 20.794 92.3123 20.1193 91.9719 19.5566C91.5745 18.8757 91.0065 18.5362 90.2705 18.5362C89.5087 18.5362 88.93 18.8766 88.5327 19.5566C88.1923 20.1202 88.0243 20.8055 88.0243 21.6162C88.0243 22.4029 88.1923 23.0775 88.5327 23.6393C88.9425 24.3202 89.5149 24.6598 90.2536 24.6598C90.9772 24.6598 91.5452 24.3131 91.955 23.6216C92.3043 23.0482 92.4803 22.3664 92.4803 21.5806Z" fill="white"/>
<path id="Vector_10" d="M100.607 18.9922C100.419 18.9575 100.219 18.9398 100.009 18.9398C99.3426 18.9398 98.827 19.1913 98.4643 19.6953C98.1488 20.1398 97.9905 20.7015 97.9905 21.3798V25.8554H96.0963L96.1141 20.0118C96.1141 19.0286 96.0901 18.1335 96.043 17.3264H97.6937L97.763 18.9584H97.8154C98.0154 18.3975 98.331 17.946 98.763 17.6073C99.1852 17.3024 99.6412 17.1504 100.133 17.1504C100.308 17.1504 100.466 17.1628 100.607 17.1851V18.9922Z" fill="white"/>
<path id="Vector_11" d="M109.081 21.1873C109.081 21.5268 109.058 21.8131 109.011 22.0468H103.326C103.348 22.8895 103.623 23.534 104.151 23.9784C104.63 24.3757 105.249 24.5749 106.01 24.5749C106.852 24.5749 107.62 24.4406 108.311 24.1713L108.608 25.4869C107.801 25.8389 106.848 26.014 105.748 26.014C104.425 26.014 103.387 25.6246 102.632 24.8469C101.878 24.0691 101.5 23.0246 101.5 21.7144C101.5 20.4282 101.851 19.357 102.554 18.5028C103.29 17.5908 104.285 17.1348 105.536 17.1348C106.766 17.1348 107.697 17.5908 108.329 18.5028C108.829 19.2273 109.081 20.1233 109.081 21.1873ZM107.273 20.6957C107.286 20.1339 107.162 19.6486 106.905 19.2388C106.577 18.7117 106.073 18.4486 105.395 18.4486C104.776 18.4486 104.272 18.7055 103.887 19.221C103.571 19.6308 103.384 20.1224 103.326 20.6948L107.273 20.6957Z" fill="white"/>
</g>
<defs>
<clipPath id="clip0_1025_68">
<rect width="121" height="40" fill="white"/>
</clipPath>
</defs>
</svg>
