<svg width="199" height="26" viewBox="0 0 199 26" fill="none" xmlns="http://www.w3.org/2000/svg">
<path d="M128.321 15.7973C132.809 15.764 136.432 12.225 136.432 7.87317C136.432 5.7991 135.591 3.8059 134.094 2.3256C132.564 0.8438 130.486 0.00893564 128.321 0.0078125L118.03 0.00818725C115.515 0.00818725 113.1 0.982323 111.327 2.71196C109.562 4.40977 108.568 6.72269 108.568 9.13295C108.568 9.1483 108.568 9.16515 108.568 9.1805V16.6887C108.6 21.6968 112.792 25.7464 117.959 25.7622H131.632C133.279 25.7618 134.616 24.4664 134.616 22.8693C134.616 21.2722 133.279 19.9769 131.632 19.9769L117.959 19.9776C117.955 19.9772 117.952 19.9773 117.948 19.9773C116.063 19.9773 114.535 18.4962 114.535 16.6692C114.535 16.6659 114.535 16.6625 114.535 16.6591V15.7576L128.321 15.7973ZM114.535 9.19061C114.535 9.18762 114.535 9.1835 114.535 9.1805C114.535 7.30972 116.1 5.79274 118.03 5.79274H128.321C129.53 5.80883 130.507 6.75938 130.518 7.93269C130.501 9.09664 129.522 10.0326 128.321 10.0326H128.32L114.535 10.0322V9.19061Z" fill="white"/>
<path d="M164.354 0.00719042H142.414C142.356 0.003821 142.297 0.00195312 142.239 0.00195312C140.592 0.00195312 139.255 1.29731 139.255 2.89441C139.255 4.49152 140.592 5.78687 142.239 5.78687C142.297 5.78687 142.356 5.785 142.414 5.782H150.384V22.9383C150.381 22.9937 150.379 23.051 150.379 23.1072C150.379 24.7043 151.716 25.9996 153.363 25.9996C155.011 25.9996 156.347 24.7043 156.347 23.1072C156.347 23.051 156.345 22.9937 156.342 22.938L156.342 5.79174H164.354C164.411 5.79511 164.471 5.79697 164.529 5.79697C166.176 5.79697 167.513 4.50163 167.513 2.90452C167.513 1.30742 166.176 0.0120621 164.529 0.0120621C164.471 0.0120621 164.411 0.0139296 164.354 0.0169247V0.00719042Z" fill="white"/>
<path d="M190.075 10.0231H178.415C177.223 10.0231 176.254 9.08904 176.248 7.93333V7.93296C176.248 6.76826 177.214 5.81959 178.415 5.80349H193.743C193.801 5.80648 193.86 5.80835 193.918 5.80835C195.566 5.80835 196.902 4.51299 196.902 2.91589C196.902 1.31878 195.566 0.0234375 193.918 0.0234375C193.86 0.0234375 193.801 0.025305 193.743 0.0283001L178.415 0.0286748C176.274 0.0387831 174.222 0.866159 172.703 2.32699C171.173 3.81515 170.304 5.83044 170.291 7.93296C170.308 10.0205 171.176 12.0182 172.703 13.4895C174.196 14.9657 176.243 15.7983 178.377 15.7983C178.399 15.7983 178.423 15.7983 178.445 15.7983L190.075 15.7979C191.288 15.7979 192.272 16.7519 192.272 17.9278V17.9282C192.272 19.0824 191.306 20.0179 190.116 20.0179C190.102 20.0179 190.088 20.0176 190.075 20.0176H174.746C173.244 20.1883 172.111 21.4234 172.111 22.8898C172.111 24.3563 173.244 25.5913 174.746 25.7624L190.075 25.7628C192.24 25.7617 194.318 24.9268 195.849 23.4447C197.371 21.9883 198.238 20.0019 198.25 17.9278C198.25 13.552 194.589 10.0033 190.075 10.0033V10.0231Z" fill="white"/>
<path d="M68.9896 7.10049C68.8536 7.08402 68.7154 7.07578 68.5779 7.07578C67.7957 7.07578 67.0372 7.34047 66.435 7.82342L50.9017 19.8189C50.1695 20.3543 49.7071 21.1701 49.6349 22.0573C49.6168 22.1944 49.6071 22.3336 49.6071 22.4722C49.6071 23.2228 49.8817 23.9502 50.3811 24.5238C50.7156 24.9217 51.1389 25.2441 51.6174 25.4646C52.0705 25.6608 52.5614 25.763 53.0577 25.763C53.0847 25.763 53.1137 25.7626 53.1403 25.7622C53.1573 25.7622 53.1747 25.7626 53.1921 25.7626C53.9661 25.7626 54.7173 25.5035 55.3171 25.0292L70.85 13.0138C71.6731 12.3894 72.1555 11.4306 72.1555 10.4164C72.1555 9.66837 71.8928 8.94244 71.412 8.35804V8.30861C70.8431 7.59804 69.9957 7.1458 69.0718 7.06081L68.9896 7.10049ZM47.0086 18.6303C46.9981 18.6306 46.9869 18.6306 46.9761 18.6306C46.179 18.6306 45.4049 18.3682 44.7816 17.8875L29.2989 5.95152C28.5666 5.41316 28.0988 4.60038 28.0116 3.71272C27.9969 3.58731 27.9888 3.46002 27.9888 3.33348C27.9888 2.56937 28.2688 1.82922 28.7782 1.24631C29.4394 0.458243 30.4332 0 31.4814 0C32.1786 0 32.861 0.203291 33.4381 0.582538L41.7968 7.03123L43.2784 8.18021L44.7399 9.30933C45.364 9.79004 46.138 10.0525 46.9352 10.0525C46.946 10.0525 46.9572 10.0525 46.968 10.0525L46.9676 10.0521C46.9862 10.0525 47.0066 10.0529 47.0255 10.0529C47.7995 10.0529 48.55 9.78966 49.1444 9.30971L60.2929 0.731165C60.9097 0.265811 61.6682 0.0127322 62.4492 0.0127322C63.5036 0.0127322 64.5031 0.473593 65.1682 1.26616C65.6429 1.85244 65.9021 2.57686 65.9021 3.323C65.9021 4.35067 65.4119 5.32106 64.575 5.95114L49.1034 17.8377C48.511 18.3121 47.7656 18.5719 46.9966 18.5719C46.9734 18.5719 46.9499 18.5715 46.9271 18.5711L47.0086 18.6303ZM20.5006 0.324959C20.0367 0.116804 19.5308 0.00823527 19.019 0.00823527C19.002 0.00786089 18.9846 0.00748577 18.9673 0.00748577C18.1933 0.00748577 17.442 0.26656 16.8422 0.7409L1.30929 12.7664C0.483921 13.389 0 14.3477 0 15.3623C0 16.1111 0.26377 16.8381 0.747713 17.4218V17.4712C1.31354 18.1788 2.15823 18.6277 3.07745 18.7093C3.21572 18.7265 3.35631 18.7351 3.49574 18.7351C4.27631 18.7351 5.03255 18.47 5.63236 17.9863L21.2159 5.95152C21.9427 5.4184 22.4031 4.61199 22.4835 3.73257C22.5012 3.59704 22.5109 3.45965 22.5109 3.323C22.5109 2.57386 22.2367 1.84794 21.7377 1.27589C21.4051 0.874929 20.9814 0.552209 20.5006 0.335068V0.324959ZM25.2214 7.17949C25.2133 7.17949 25.2037 7.17949 25.1952 7.17949C24.3914 7.17949 23.6109 7.44529 22.9837 7.93236L7.53261 19.8189C6.70918 20.4438 6.22676 21.4022 6.22676 22.4168C6.22676 23.1865 6.50485 23.9322 7.01158 24.5241C7.67319 25.3193 8.67195 25.7828 9.72597 25.7828C10.4189 25.7828 11.0971 25.5821 11.6718 25.207L20.0306 18.8283L21.5225 17.6793L22.984 16.5502C23.6089 16.0695 24.3841 15.8071 25.1824 15.8071C25.1956 15.8071 25.2091 15.8074 25.2219 15.8074H25.1705C25.1875 15.8074 25.2048 15.8071 25.2214 15.8071C25.9978 15.8071 26.7501 16.0699 27.3476 16.5502L38.476 25.1284C39.0921 25.5934 39.8506 25.8464 40.6315 25.8464C41.686 25.8464 42.6855 25.3856 43.3506 24.593C43.8724 23.9944 44.159 23.2355 44.159 22.4516C44.159 21.4202 43.6634 20.446 42.8191 19.8189L27.3472 7.93236C26.7528 7.45877 26.007 7.19896 25.2369 7.19896C25.2149 7.19896 25.1925 7.19933 25.1709 7.19971L25.2214 7.17949Z" fill="#EA3E2A"/>
<path fill-rule="evenodd" clip-rule="evenodd" d="M83.7357 0.513226C83.239 0.184894 82.6515 0.00856126 82.0498 0.0078125C80.3569 0.0078125 78.9839 1.33874 78.9839 2.97965V22.7907C78.9839 24.4312 80.3569 25.7622 82.0498 25.7622C83.7426 25.7622 85.1156 24.4312 85.1156 22.7903L85.1153 10.161L100.372 24.9501C100.522 25.1003 100.69 25.2335 100.873 25.3459C101.371 25.6615 101.954 25.8296 102.549 25.8296C104.241 25.8296 105.614 24.5001 105.615 22.86L105.614 2.97965C105.615 1.33874 104.242 0.0078125 102.549 0.0078125C100.856 0.0078125 99.4829 1.33874 99.4829 2.97965V15.6884L84.2261 0.899588C84.0782 0.754703 83.9125 0.624417 83.736 0.513226H83.7357Z" fill="white"/>
</svg>
