<svg width="70" height="70" viewBox="0 0 70 70" fill="none" xmlns="http://www.w3.org/2000/svg">
<g id="bi:shield">
<path id="Vector" d="M32.9565 65.3847C33.498 65.6418 33.9561 65.8214 34.3245 65.9353C34.5081 65.9987 34.6973 66.045 34.8895 66.0737L35.005 66.0909L35.1203 66.0722C35.306 66.042 35.4889 65.9966 35.6671 65.9366C36.0419 65.8223 36.5019 65.6419 37.0445 65.3842C38.1403 64.8682 39.5203 64.0707 41.0617 62.9881L41.0617 62.9882L41.0688 62.9831C44.9334 60.2013 48.3594 56.8564 51.2329 53.0595C58.0196 44.1834 63.6895 30.7139 61.2366 12.3084L61.2358 12.3031C61.1613 11.7732 60.9392 11.275 60.5948 10.8655C60.251 10.4568 59.7994 10.1529 59.2914 9.98843C56.4372 9.05458 51.6156 7.53213 46.8427 6.23681L46.8426 6.23677C42.005 4.92495 37.4403 3.91813 35 3.91813C32.5644 3.91813 27.9959 4.92034 23.1575 6.23239L23.1545 6.23321L10.9419 10.7013L10.7108 9.98775C10.7103 9.9879 10.7098 9.98805 10.7094 9.9882C10.2013 10.1531 9.7497 10.4572 9.40589 10.866C9.06176 11.2752 8.83947 11.7728 8.76434 12.3021L8.76431 12.3021L8.76347 12.3084C6.31062 30.7137 11.9803 44.1785 18.7667 53.0589C21.6402 56.8561 25.0664 60.2013 28.9313 62.9831L28.9312 62.9831L28.9372 62.9873C30.4796 64.075 31.8558 64.8685 32.9565 65.3847ZM32.9565 65.3847C32.9558 65.3843 32.9551 65.384 32.9545 65.3837L33.2763 64.7063L32.9579 65.3853C32.9574 65.3851 32.9569 65.3849 32.9565 65.3847ZM47.6133 3.17373L47.6143 3.17402C52.4517 4.48142 57.3327 6.02976 60.2066 6.96881C61.2758 7.32213 62.2236 7.96976 62.9414 8.83738C63.6594 9.70532 64.118 10.7582 64.2645 11.8751L64.2647 11.8765C66.843 31.244 60.8628 45.5643 53.6279 55.0282L53.626 55.0308C50.5583 59.079 46.9003 62.6439 42.7745 65.6064L42.7742 65.6066C41.3623 66.6211 39.8663 67.5134 38.3027 68.2737C37.0938 68.8432 35.9071 69.25 35 69.25C34.0932 69.25 32.9112 68.8435 31.6964 68.2732C30.1331 67.5131 28.6375 66.621 27.2258 65.6066L27.2256 65.6064C23.0998 62.6438 19.4419 59.0789 16.374 55.0308L16.3721 55.0283C9.13725 45.5643 3.15704 31.244 5.73534 11.8765L5.73553 11.8751C5.88205 10.7582 6.34066 9.70532 7.05867 8.83738C7.77649 7.96967 8.72447 7.32199 9.79374 6.9687C13.9607 5.60245 18.1599 4.33699 22.3879 3.17342C27.1515 1.8783 32.0984 0.75 35 0.75C37.9019 0.75 42.8494 1.87848 47.6133 3.17373Z" fill="#EA3E2A" stroke="white" stroke-width="1.5"/>
</g>
</svg>
