<svg width="70" height="70" viewBox="0 0 70 70" fill="none" xmlns="http://www.w3.org/2000/svg">
<g id="material-symbols-light:contact-support-outline">
<path id="Vector" d="M42.1667 57.7474V56.663V52.7073H34.5H34.4998C28.4364 52.705 23.286 50.5762 19.0789 46.3277C14.8718 42.0794 12.7667 36.8778 12.7667 30.7539V30.7537C12.7689 24.6322 14.874 19.4307 19.0787 15.1803C23.2837 10.9294 28.4343 8.80052 34.5 8.80052H34.5002C40.5636 8.80277 45.714 10.9316 49.9211 15.1801C54.1281 19.4284 56.2333 24.6299 56.2333 30.7537L42.1667 57.7474ZM42.1667 57.7474L42.9913 57.0433M42.1667 57.7474L42.9913 57.0433M42.9913 57.0433C46.9028 53.7036 50.0862 49.7912 52.5394 45.3083M42.9913 57.0433L52.5394 45.3083M52.5394 45.3083C55.0041 40.8044 56.2355 35.9503 56.2333 30.7539L52.5394 45.3083ZM39.8774 62.0997L39.7104 55.4952L39.6981 55.0078H39.2105H34.5C27.8227 55.0078 22.1657 52.6545 17.4997 47.9379L17.4995 47.9378C12.8311 43.2231 10.5 37.5051 10.5 30.7539C10.5 24.0027 12.8311 18.2847 17.4995 13.57L17.4997 13.5699C22.1657 8.8533 27.8227 6.5 34.5 6.5C37.8389 6.5 40.9591 7.13201 43.8658 8.39281L43.866 8.39288C46.7795 9.65538 49.3207 11.3831 51.4937 13.5764C53.6647 15.772 55.3753 18.3403 56.6255 21.2854L56.6255 21.2855C57.874 24.2238 58.5 27.3783 58.5 30.7539C58.5 34.0689 58.0184 37.2491 57.0566 40.2966C56.0893 43.3523 54.7546 46.2416 53.0521 48.9652C51.3452 51.6889 49.3023 54.1986 46.9223 56.4946C44.7502 58.59 42.402 60.4583 39.8774 62.0997ZM33.2539 43.6881L33.2555 43.6864C33.6232 43.3132 34.0634 43.1292 34.6078 43.1292C35.1496 43.1292 35.5904 43.3129 35.9609 43.6872C36.3286 44.0587 36.5121 44.5062 36.5121 45.0617C36.5121 45.6142 36.3291 46.0621 35.9607 46.4364C35.5932 46.8075 35.1529 46.9909 34.6078 46.9909C34.0626 46.9909 33.6222 46.8074 33.2547 46.4361L33.2539 46.4353C32.8843 46.0636 32.7003 45.6164 32.7003 45.0617C32.7003 44.507 32.8843 44.0597 33.2539 43.6881ZM39.5579 30.6427L39.5575 30.6431C37.9442 32.2731 36.8727 33.5283 36.4036 34.3853C35.9787 35.1615 35.7213 36.1532 35.6087 37.3368H33.689C33.7357 36.021 33.9694 34.9115 34.3755 33.9965C34.8272 32.9793 35.7966 31.7817 37.3444 30.4047L37.3565 30.3939L37.3679 30.3824C38.2657 29.473 39.0087 28.6244 39.5925 27.837C40.2326 26.9739 40.5403 25.9309 40.5403 24.7371C40.5403 23.4007 40.0457 22.1783 39.095 21.0825C38.0883 19.9219 36.5609 19.3886 34.6241 19.3886C32.9871 19.3886 31.6481 19.8121 30.6808 20.7267L30.6798 20.7276C29.9155 21.454 29.3036 22.2534 28.849 23.126L27.0823 22.4342C27.7029 21.1684 28.608 20.0602 29.8064 19.1084L29.8067 19.1082C31.1097 18.0718 32.7056 17.5435 34.6241 17.5435C36.8263 17.5435 38.6774 18.1901 40.206 19.4699L40.2063 19.4702C41.7047 20.7226 42.4672 22.4443 42.4672 24.6975C42.4672 25.9022 42.2093 26.9485 41.7071 27.8505L41.7069 27.8509C41.1839 28.7924 40.4699 29.7234 39.5579 30.6427Z" fill="#EA3E2A" stroke="white"/>
</g>
</svg>
