<svg width="70" height="62" viewBox="0 0 70 62" fill="none" xmlns="http://www.w3.org/2000/svg">
<path id="Vector" d="M46.172 46.1928H44.8768L45.5215 47.3161L52.9595 60.2756H49.3036L41.4371 46.5695L41.221 46.1928H40.7867H29.2413H28.807L28.5909 46.5695L20.7244 60.2756H17.0685L24.5065 47.3161L25.1512 46.1928H23.856H9.33333C8.91484 46.1928 8.51259 46.0256 8.21531 45.7266C7.91788 45.4274 7.75 45.0207 7.75 44.5957V4.69428V3.94428H7H2.33333C1.91484 3.94428 1.51259 3.77709 1.21531 3.47806C0.917883 3.17887 0.75 2.77215 0.75 2.34714C0.75 1.92213 0.917883 1.51541 1.21531 1.21623C1.51259 0.917188 1.91484 0.75 2.33333 0.75H67.6667C68.0852 0.75 68.4874 0.917189 68.7847 1.21622C69.0821 1.51541 69.25 1.92213 69.25 2.34714C69.25 2.77215 69.0821 3.17887 68.7847 3.47806C68.4874 3.77709 68.0852 3.94428 67.6667 3.94428H63H62.25V4.69428V44.5957C62.25 45.0207 62.0821 45.4274 61.7847 45.7266C61.4874 46.0256 61.0852 46.1928 60.6667 46.1928H46.172ZM59.0833 4.69428V3.94428H58.3333H11.6667H10.9167V4.69428V42.2485V42.9985H11.6667H58.3333H59.0833V42.2485V4.69428ZM23.3333 24.2214C23.7518 24.2214 24.1541 24.3886 24.4514 24.6876C24.7488 24.9868 24.9167 25.3935 24.9167 25.8185V30.5128C24.9167 30.9378 24.7488 31.3446 24.4514 31.6437C24.1541 31.9428 23.7518 32.11 23.3333 32.11C22.9148 32.11 22.5126 31.9428 22.2153 31.6437C21.9179 31.3446 21.75 30.9378 21.75 30.5128V25.8185C21.75 25.3935 21.9179 24.9868 22.2153 24.6876C22.5126 24.3886 22.9148 24.2214 23.3333 24.2214ZM35 19.5271C35.4185 19.5271 35.8207 19.6943 36.118 19.9933C36.4155 20.2925 36.5833 20.6992 36.5833 21.1243V30.5128C36.5833 30.9378 36.4155 31.3446 36.118 31.6437C35.8207 31.9428 35.4185 32.11 35 32.11C34.5815 32.11 34.1793 31.9428 33.882 31.6437C33.5845 31.3446 33.4167 30.9378 33.4167 30.5128V21.1243C33.4167 20.6993 33.5845 20.2925 33.882 19.9933C34.1793 19.6943 34.5815 19.5271 35 19.5271ZM46.6667 14.8328C47.0852 14.8328 47.4874 15 47.7847 15.2991C48.0821 15.5983 48.25 16.005 48.25 16.43V30.5128C48.25 30.9378 48.0821 31.3446 47.7847 31.6437C47.4874 31.9428 47.0852 32.11 46.6667 32.11C46.2482 32.11 45.8459 31.9428 45.5486 31.6437C45.2512 31.3446 45.0833 30.9378 45.0833 30.5128V16.43C45.0833 16.005 45.2512 15.5983 45.5486 15.2991C45.8459 15 46.2482 14.8328 46.6667 14.8328Z" fill="#EA3E2A" stroke="white" stroke-width="1.5"/>
</svg>
