<svg width="50" height="50" viewBox="0 0 50 50" fill="none" xmlns="http://www.w3.org/2000/svg">
<path d="M1.5625 25C1.5625 29.6094 2.89062 33.9062 5.15625 37.5H44.7656C47.0312 33.9062 48.3594 29.6094 48.3594 25C48.3594 20.3906 47.0312 16.0938 44.7656 12.5H5.15625C2.89062 16.0938 1.5625 20.3906 1.5625 25Z" fill="#F9F9F9"/>
<path d="M44.8438 12.5C40.7031 5.9375 33.3594 1.5625 25 1.5625C16.6406 1.5625 9.29688 5.9375 5.15625 12.5H44.8438Z" fill="#C94747"/>
<path d="M5.15625 37.5C9.29687 44.0625 16.6406 48.4375 25 48.4375C33.3594 48.4375 40.7031 44.0625 44.8437 37.5H5.15625Z" fill="#699635"/>
<path d="M29.9219 28.4375C29.4531 28.8282 28.9063 29.0625 28.2813 29.1406C26.7969 29.2969 25.4688 28.2031 25.3125 26.7969V24.7657C25.3125 24.2969 25.7031 23.9063 26.25 23.9063C26.5625 23.9063 26.875 24.0625 27.0312 24.2969C27.4219 23.2032 26.7969 22.1094 25.7031 21.7188C24.6094 21.3281 23.4375 21.9532 23.0469 23.0469C22.8906 23.4375 22.8906 23.9063 23.0469 24.2969C23.2813 23.9063 23.8281 23.75 24.2969 23.9844C24.5313 24.1407 24.7656 24.375 24.7656 24.6875V26.7188C24.6094 28.125 23.2813 29.2188 21.7969 29.0625C21.1719 28.9844 20.625 28.75 20.1563 28.3594C19.6094 29.7656 17.9688 30.4688 16.4844 29.8438C16.25 29.7657 16.0938 29.6875 15.8594 29.5313C16.0938 32.0313 20 31.5625 20.3125 29.0625C21.5625 31.1719 24.2188 30.5469 25 27.9688C25.7813 30.5469 28.5156 31.0938 29.6875 29.0625C30 31.4844 33.9063 32.0313 34.1406 29.5313C33.9844 29.6875 33.75 29.7657 33.5156 29.8438C32.1094 30.5469 30.4688 29.8438 29.9219 28.4375ZM23.4375 23.3594C23.5156 22.7344 24.0625 22.1875 24.7656 22.1094C25.625 22.0313 26.4063 22.5782 26.4844 23.3594C25.8594 23.2032 25.2344 23.5157 24.9219 23.9844C24.6875 23.5157 24.0625 23.2813 23.4375 23.3594Z" fill="#FFCE31"/>
<path d="M22.0312 31.25C22.0312 31.25 21.7187 31.0937 21.1719 31.1719C21.0938 30.7812 20.7812 30.4687 20.5469 30.3906C20.3125 30.625 20.1562 31.0937 20.2344 31.4062C19.8437 31.4844 19.4531 31.7187 19.4531 31.7187C20.3906 32.5781 21.4844 32.3437 22.0312 31.25Z" fill="#FFCE31"/>
<path d="M26.3281 31.0938C26.3281 31.0938 26.0938 30.8594 25.4688 30.8594C25.4688 30.4688 25.1563 30.1563 25 29.9219C24.7656 30.1563 24.5313 30.5469 24.5313 30.8594C24.1406 30.8594 23.6719 31.0938 23.6719 31.0938C24.4531 32.1875 25.625 32.1094 26.3281 31.0938Z" fill="#FFCE31"/>
<path d="M29.4531 30.3125C29.1406 30.4688 28.9063 30.8594 28.8281 31.1719C28.4375 31.0938 27.9688 31.25 27.9688 31.25C28.5938 32.4219 29.6875 32.5781 30.5469 31.6406C30.5469 31.6406 30.3125 31.4063 29.7656 31.3281C29.8437 30.9375 29.6094 30.5469 29.4531 30.3125Z" fill="#FFCE31"/>
<path d="M17.8906 33.125L18.2812 34.375C22.7344 33.125 27.3437 33.125 31.7969 34.375L32.1875 33.125C27.5 31.7969 22.5 31.7969 17.8906 33.125Z" fill="#FFCE31"/>
<path d="M24.375 17.5781L23.9844 18.75L25 17.9688L26.0156 18.75L25.625 17.5781L26.7188 16.7969H25.3906L25 15.625L24.6094 16.7969H23.2812L24.375 17.5781Z" fill="#FFCE31"/>
<path d="M19.375 18.8281L18.9063 20L20 19.2969L21.0156 20L20.625 18.8281L21.7187 18.125H20.3906L20 16.9531L19.6094 18.125H18.2812L19.375 18.8281Z" fill="#FFCE31"/>
<path d="M15.7031 22.3437L15.2344 23.5938L16.3281 22.8125L17.3438 23.5938L16.9531 22.3437L18.0469 21.6406H16.7187L16.3281 20.4688L15.9375 21.6406H14.6094L15.7031 22.3437Z" fill="#FFCE31"/>
<path d="M15 27.6562L16.0156 28.3594L15.625 27.1875L16.7188 26.4844H15.3906L15 25.3125L14.6094 26.4844H13.2812L14.2969 27.1875L13.9062 28.3594L15 27.6562Z" fill="#FFCE31"/>
<path d="M29.375 18.8281L28.9844 20L30 19.2969L31.0937 20L30.625 18.8281L31.7187 18.125H30.3906L30 16.9531L29.6094 18.125H28.2812L29.375 18.8281Z" fill="#FFCE31"/>
<path d="M33.0469 22.3437L32.6562 23.5938L33.6719 22.8125L34.7656 23.5938L34.2969 22.3437L35.3906 21.6406H34.0625L33.6719 20.4688L33.2812 21.6406H31.9531L33.0469 22.3437Z" fill="#FFCE31"/>
<path d="M35.7031 27.1875L36.7188 26.4844H35.3906L35 25.3125L34.6094 26.4844H33.2812L34.375 27.1875L33.9844 28.3594L35 27.6562L36.0938 28.3594L35.7031 27.1875Z" fill="#FFCE31"/>
</svg>
